# xmcd
#
# Track frame offsets:
#	150
#	17423
#	31754
#	52480
#	64764
#	80229
#	95850
#	108101
#	124338
#	139382
#	155459
#	166906
#	181829
#	207516
#
# Disc length: 2898 seconds
#
# Revision: 0
# Processed by: cddbd v1.4PL0 Copyright (c) Steve Scherf et al.
# Submitted via: dBpowerAMP V4.0
#
DISCID=c70b500e
DTITLE=D.C. and Co. - Ain't That Somethin'
DYEAR=2003
DGENRE=Blues
TTITLE0=Take Me Down Take Me Down
TTITLE1=What A But-But
TTITLE2=I Don't Mind
TTITLE3=Boom Boom Boom
TTITLE4=La Samba de Costarella
TTITLE5=Clip My Wings
TTITLE6=Party On The 4th Of July
TTITLE7=Another Day
TTITLE8=South Of Eden
TTITLE9=Don't Let Go
TTITLE10=Move It On Down The Line
TTITLE11=Betrayed
TTITLE12=Heaven Can't
TTITLE13=The New Wedding March
EXTD=
EXTT0=
EXTT1=
EXTT2=
EXTT3=
EXTT4=
EXTT5=
EXTT6=
EXTT7=
EXTT8=
EXTT9=
EXTT10=
EXTT11=
EXTT12=
EXTT13=
PLAYORDER=
